# Blender v2.79 (sub 0) OBJ File: 'couch.blend'
# www.blender.org
o Cube.001_Cube.002
v -2.745411 0.021237 3.011899
v -2.745411 2.621237 3.011899
v -2.745411 0.021237 2.511899
v -2.745411 2.621237 2.511899
v 1.254589 0.021237 3.011899
v 1.254589 0.021237 2.511899
v 1.254589 1.971237 3.011899
v 1.042457 2.304123 3.011899
v 0.766721 2.483351 3.011899
v 0.254589 2.621237 3.011899
v 0.254589 2.621237 2.511899
v 0.766721 2.483351 2.511899
v 1.042457 2.304123 2.511899
v 1.254589 1.971237 2.511899
v -2.771367 -0.004457 3.000000
v -2.771367 -0.004457 -3.000000
v -0.771367 -0.004457 3.000000
v -0.771367 -0.004457 -3.000000
v -2.271367 3.395543 3.000000
v -2.527433 3.215231 3.000000
v -2.665301 2.980855 3.000000
v -2.771367 2.545543 3.000000
v -2.771367 2.545543 -3.000000
v -2.665301 2.980855 -3.000000
v -2.527433 3.215231 -3.000000
v -2.271367 3.395543 -3.000000
v -0.771367 2.545543 3.000000
v -0.877433 2.980855 3.000000
v -1.015301 3.215231 3.000000
v -1.271367 3.395543 3.000000
v -1.271367 3.395543 -3.000000
v -1.015301 3.215231 -3.000000
v -0.877433 2.980855 -3.000000
v -0.771367 2.545543 -3.000000
v -2.732652 0.011443 -2.512908
v -2.732652 2.611443 -2.512908
v -2.732652 0.011443 -3.012908
v -2.732652 2.611443 -3.012908
v 1.267348 0.011443 -2.512908
v 1.267348 0.011443 -3.012908
v 1.267348 1.961443 -2.512908
v 1.055216 2.294329 -2.512908
v 0.779480 2.473557 -2.512908
v 0.267348 2.611443 -2.512908
v 0.267348 2.611443 -3.012908
v 0.779480 2.473557 -3.012908
v 1.055216 2.294329 -3.012908
v 1.267348 1.961443 -3.012908
v -1.000000 0.004003 3.000000
v -1.000000 2.004003 3.000000
v -1.000000 0.004003 -3.000000
v -1.000000 2.004003 -3.000000
v 1.000000 0.004003 3.000000
v 1.000000 0.004003 -3.000000
v 1.000000 1.504003 3.000000
v 0.893934 1.760069 3.000000
v 0.756066 1.897937 3.000000
v 0.500000 2.004003 3.000000
v 0.500000 2.004003 -3.000000
v 0.756066 1.897937 -3.000000
v 0.893934 1.760069 -3.000000
v 1.000000 1.504003 -3.000000
vt 0.755808 0.769110
vt 0.830092 0.694548
vt 0.830092 0.769110
vt 0.868397 0.093576
vt 0.923288 0.019013
vt 0.923288 0.093576
vt 0.755808 0.318754
vt 0.830371 0.244192
vt 0.830371 0.318754
vt 0.755808 0.150243
vt 0.774449 0.131602
vt 0.830371 0.206165
vt 0.878485 0.318754
vt 0.933559 0.244192
vt 0.933559 0.318754
vt 0.764903 0.427389
vt 0.759763 0.422249
vt 0.755808 0.412702
vt 0.933415 0.093576
vt 0.868397 0.244192
vt 0.878485 0.244192
vt 0.933415 0.019013
vt 0.939442 0.093576
vt 0.044104 0.913761
vt 0.116959 0.019013
vt 0.116959 0.913761
vt 0.980987 0.493746
vt 0.980987 0.566874
vt 0.943705 0.493746
vt 0.553438 0.913761
vt 0.590719 0.019013
vt 0.590719 0.913761
vt 0.160906 0.019013
vt 0.167972 0.913761
vt 0.160906 0.913761
vt 0.717782 0.019013
vt 0.699485 0.913761
vt 0.699485 0.019013
vt 0.180609 0.913761
vt 0.252628 0.019013
vt 0.252629 0.913761
vt 0.024577 0.019013
vt 0.031496 0.913761
vt 0.024578 0.913761
vt 0.019013 0.019013
vt 0.019013 0.913761
vt 0.031496 0.019013
vt 0.044104 0.019013
vt 0.154985 0.019013
vt 0.154986 0.913761
vt 0.167972 0.019013
vt 0.180609 0.019013
vt 0.905679 0.493746
vt 0.905679 0.566874
vt 0.868397 0.493746
vt 0.755808 0.881699
vt 0.830092 0.807137
vt 0.830092 0.881699
vt 0.868119 0.769110
vt 0.923010 0.694548
vt 0.923010 0.769110
vt 0.830371 0.019013
vt 0.755808 0.093576
vt 0.755808 0.019013
vt 0.755808 0.600599
vt 0.774449 0.581959
vt 0.830371 0.656521
vt 0.923471 0.356781
vt 0.868397 0.431343
vt 0.868397 0.356781
vt 0.821277 0.473324
vt 0.826416 0.478464
vt 0.830371 0.488010
vt 0.933136 0.769110
vt 0.933559 0.431343
vt 0.923471 0.431343
vt 0.933136 0.694548
vt 0.939163 0.769110
vt 0.290655 0.913761
vt 0.347797 0.019013
vt 0.347797 0.913761
vt 0.628746 0.913761
vt 0.656191 0.019013
vt 0.656191 0.913761
vt 0.478130 0.913761
vt 0.515411 0.019013
vt 0.515411 0.913761
vt 0.793090 0.919726
vt 0.793090 0.977082
vt 0.755808 0.934065
vt 0.397738 0.913761
vt 0.440102 0.019013
vt 0.440103 0.913761
vt 0.905679 0.163148
vt 0.896358 0.148809
vt 0.903701 0.155805
vt 0.661458 0.913761
vt 0.390163 0.019013
vt 0.397738 0.019013
vt 0.385823 0.019013
vt 0.390163 0.913761
vt 0.385824 0.913761
vt 0.755808 0.694548
vt 0.868397 0.019013
vt 0.755808 0.244192
vt 0.755808 0.206165
vt 0.759763 0.140697
vt 0.764903 0.135557
vt 0.830371 0.131602
vt 0.755808 0.356781
vt 0.830371 0.356781
vt 0.830371 0.431343
vt 0.774449 0.431343
vt 0.868398 0.318754
vt 0.939442 0.019013
vt 0.943705 0.566874
vt 0.945683 0.481262
vt 0.979009 0.481262
vt 0.948252 0.474541
vt 0.953026 0.469370
vt 0.971666 0.469370
vt 0.976440 0.474541
vt 0.553438 0.019013
vt 0.717782 0.913761
vt 0.868397 0.566874
vt 0.870375 0.481262
vt 0.903701 0.481262
vt 0.872945 0.474541
vt 0.877718 0.469370
vt 0.896358 0.469370
vt 0.901132 0.474541
vt 0.755808 0.807137
vt 0.868119 0.694548
vt 0.830371 0.093576
vt 0.755808 0.656521
vt 0.759763 0.591053
vt 0.764903 0.585913
vt 0.830371 0.581959
vt 0.830371 0.543932
vt 0.755808 0.543932
vt 0.755808 0.469370
vt 0.811730 0.469370
vt 0.933559 0.356781
vt 0.939163 0.694548
vt 0.290655 0.019013
vt 0.628746 0.019013
vt 0.478130 0.019013
vt 0.755808 0.977082
vt 0.757785 0.926722
vt 0.765129 0.919726
vt 0.760355 0.922768
vt 0.905679 0.206165
vt 0.868397 0.206165
vt 0.868397 0.148809
vt 0.901132 0.151851
vt 0.661458 0.019013
vn -1.0000 0.0000 0.0000
vn 0.0000 1.0000 0.0000
vn 0.0000 -1.0000 0.0000
vn 0.0000 0.0000 1.0000
vn 1.0000 0.0000 0.0000
vn 0.0000 0.0000 -1.0000
vn 0.2600 0.9656 0.0000
vn 0.8433 0.5374 0.0000
vn 0.5450 0.8384 0.0000
vn 0.8619 0.5070 0.0000
vn -0.8619 0.5070 0.0000
vn -0.5757 0.8176 0.0000
vn -0.9716 0.2367 0.0000
vn 0.5757 0.8176 0.0000
vn 0.9716 0.2367 0.0000
vn 0.3827 0.9239 0.0000
vn 0.9239 0.3827 0.0000
vn 0.7071 0.7071 0.0000
s off
f 2/1/1 3/2/1 1/3/1
f 4/4/2 10/5/2 11/6/2
f 6/7/3 1/8/3 3/9/3
f 7/10/4 10/11/4 1/12/4
f 14/13/5 5/14/5 6/15/5
f 12/16/6 13/17/6 14/18/6
f 10/5/7 12/19/7 11/6/7
f 14/13/8 8/20/8 7/21/8
f 9/22/9 13/23/9 12/19/9
f 22/24/1 16/25/1 15/26/1
f 34/27/6 18/28/6 23/29/6
f 18/30/3 15/31/3 16/32/3
f 29/33/10 33/34/10 32/35/10
f 26/36/2 30/37/2 31/38/2
f 34/39/5 17/40/5 18/41/5
f 25/42/11 21/43/11 20/44/11
f 26/45/12 20/44/12 19/46/12
f 22/24/13 24/47/13 23/48/13
f 30/49/14 32/35/14 31/50/14
f 34/39/15 28/51/15 27/52/15
f 22/53/4 15/54/4 27/55/4
f 36/56/1 37/57/1 35/58/1
f 38/59/2 44/60/2 45/61/2
f 40/62/3 35/63/3 37/64/3
f 41/65/4 44/66/4 35/67/4
f 48/68/5 39/69/5 40/70/5
f 46/71/6 47/72/6 48/73/6
f 44/60/7 46/74/7 45/61/7
f 48/68/8 42/75/8 41/76/8
f 43/77/9 47/78/9 46/74/9
f 50/79/1 51/80/1 49/81/1
f 52/82/2 58/83/2 59/84/2
f 54/85/3 49/86/3 51/87/3
f 50/88/4 49/89/4 55/90/4
f 62/91/5 53/92/5 54/93/5
f 62/94/6 59/95/6 61/96/6
f 58/83/16 60/97/16 59/84/16
f 62/91/17 56/98/17 55/99/17
f 57/100/18 61/101/18 60/102/18
f 2/1/1 4/103/1 3/2/1
f 4/4/2 2/104/2 10/5/2
f 6/7/3 5/105/3 1/8/3
f 1/12/4 5/106/4 7/10/4
f 7/10/4 8/107/4 9/108/4
f 9/108/4 10/11/4 7/10/4
f 10/11/4 2/109/4 1/12/4
f 14/13/5 7/21/5 5/14/5
f 6/110/6 3/111/6 14/18/6
f 3/111/6 4/112/6 11/113/6
f 14/18/6 3/111/6 11/113/6
f 11/113/6 12/16/6 14/18/6
f 10/5/7 9/22/7 12/19/7
f 14/13/8 13/114/8 8/20/8
f 9/22/9 8/115/9 13/23/9
f 22/24/1 23/48/1 16/25/1
f 18/28/6 16/116/6 23/29/6
f 23/29/6 24/117/6 33/118/6
f 24/117/6 25/119/6 33/118/6
f 25/119/6 26/120/6 31/121/6
f 31/121/6 32/122/6 25/119/6
f 32/122/6 33/118/6 25/119/6
f 33/118/6 34/27/6 23/29/6
f 18/30/3 17/123/3 15/31/3
f 29/33/10 28/51/10 33/34/10
f 26/36/2 19/124/2 30/37/2
f 34/39/5 27/52/5 17/40/5
f 25/42/11 24/47/11 21/43/11
f 26/45/12 25/42/12 20/44/12
f 22/24/13 21/43/13 24/47/13
f 30/49/14 29/33/14 32/35/14
f 34/39/15 33/34/15 28/51/15
f 15/54/4 17/125/4 27/55/4
f 27/55/4 28/126/4 21/127/4
f 28/126/4 29/128/4 21/127/4
f 29/128/4 30/129/4 19/130/4
f 19/130/4 20/131/4 29/128/4
f 20/131/4 21/127/4 29/128/4
f 21/127/4 22/53/4 27/55/4
f 36/56/1 38/132/1 37/57/1
f 38/59/2 36/133/2 44/60/2
f 40/62/3 39/134/3 35/63/3
f 35/67/4 39/135/4 41/65/4
f 41/65/4 42/136/4 43/137/4
f 43/137/4 44/66/4 41/65/4
f 44/66/4 36/138/4 35/67/4
f 48/68/5 41/76/5 39/69/5
f 40/139/6 37/140/6 48/73/6
f 37/140/6 38/141/6 45/142/6
f 48/73/6 37/140/6 45/142/6
f 45/142/6 46/71/6 48/73/6
f 44/60/7 43/77/7 46/74/7
f 48/68/8 47/143/8 42/75/8
f 43/77/9 42/144/9 47/78/9
f 50/79/1 52/145/1 51/80/1
f 52/82/2 50/146/2 58/83/2
f 54/85/3 53/147/3 49/86/3
f 49/89/4 53/148/4 55/90/4
f 55/90/4 56/149/4 58/150/4
f 56/149/4 57/151/4 58/150/4
f 58/150/4 50/88/4 55/90/4
f 62/91/5 55/99/5 53/92/5
f 54/152/6 51/153/6 62/94/6
f 51/153/6 52/154/6 62/94/6
f 52/154/6 59/95/6 62/94/6
f 59/95/6 60/155/6 61/96/6
f 58/83/16 57/156/16 60/97/16
f 62/91/17 61/101/17 56/98/17
f 57/100/18 56/98/18 61/101/18
