# Blender v2.79 (sub 0) OBJ File: 'fireplace.blend'
# www.blender.org
o Cube_Cube.002
v -0.300000 0.821438 2.500000
v -0.300000 0.821438 -2.500000
v 0.300000 0.821438 -2.500000
v 0.300000 0.821438 2.500000
v -0.300000 0.265346 1.383830
v -0.300000 2.265346 1.383830
v 0.300000 0.265346 1.383830
v 0.300000 2.265346 1.383830
v 0.300000 0.821438 1.383830
v -0.300000 0.821438 1.383830
v -0.300000 2.265346 -1.341813
v 0.300000 0.265346 -1.341813
v -0.300000 0.821438 -1.341813
v -0.300000 0.265346 -1.341813
v 0.300000 2.265346 -1.341813
v 0.300000 0.821438 -1.341813
v -0.300000 1.724041 2.500000
v -0.300000 1.724041 -2.500000
v 0.300000 1.724041 -2.500000
v 0.300000 1.724041 2.500000
v 0.300000 1.724041 1.383830
v -0.300000 1.724041 1.383830
v 0.300000 1.724041 -1.341813
v -0.300000 1.724041 -1.341813
v 0.823985 0.821438 -2.500000
v 0.823985 0.265346 -1.341813
v 0.823985 2.265346 1.383830
v 0.823985 0.821438 2.500000
v 0.823985 1.724041 -2.500000
v 0.823985 1.724041 2.500000
v 0.823985 0.821438 1.383830
v 0.823985 0.265346 1.383830
v 0.823985 2.265346 -1.341813
v 0.823985 0.821438 -1.341813
v 0.823985 1.724041 1.383830
v 0.823985 1.724041 -1.341813
v 0.662259 1.724041 1.383830
v 0.662259 0.821438 1.383830
v 0.662259 0.821438 -1.341813
v 0.662259 1.724041 -1.341813
v 0.823985 0.893634 -1.161322
v 0.823985 0.893634 1.203339
v 0.823985 1.651845 1.203339
v 0.823985 1.651845 -1.161322
v 0.662259 1.651845 1.203339
v 0.662259 0.893634 -1.161322
v 0.662259 0.893634 1.203339
v 0.662259 1.651845 -1.161322
v -0.300000 0.265346 1.836705
v -0.300000 0.276560 1.977655
v -0.300000 0.302169 2.132217
v -0.300000 0.334105 2.251708
v -0.300000 0.364662 2.328100
v -0.300000 0.412459 2.407942
v -0.300000 0.474284 2.471963
v -0.300000 0.530663 2.500000
v -0.300000 2.000028 2.500000
v -0.300000 2.056407 2.471963
v -0.300000 2.118232 2.407942
v -0.300000 2.166029 2.328100
v -0.300000 2.196586 2.251708
v -0.300000 2.228522 2.132217
v -0.300000 2.254131 1.977655
v -0.300000 2.265346 1.836705
v -0.300000 0.530663 -2.500000
v -0.300000 0.474284 -2.471963
v -0.300000 0.412459 -2.407942
v -0.300000 0.364662 -2.328100
v -0.300000 0.334105 -2.251708
v -0.300000 0.302169 -2.132217
v -0.300000 0.276560 -1.977655
v -0.300000 0.265346 -1.836705
v -0.300000 2.265346 -1.836705
v -0.300000 2.254131 -1.977655
v -0.300000 2.228522 -2.132217
v -0.300000 2.196586 -2.251708
v -0.300000 2.166029 -2.328100
v -0.300000 2.118232 -2.407942
v -0.300000 2.056407 -2.471963
v -0.300000 2.000028 -2.500000
v 0.300000 0.265346 1.836705
v 0.300000 0.276560 1.977655
v 0.300000 0.302169 2.132217
v 0.300000 0.334105 2.251708
v 0.300000 0.364662 2.328100
v 0.300000 0.412459 2.407942
v 0.300000 0.474284 2.471963
v 0.300000 0.530663 2.500000
v 0.300000 2.000028 2.500000
v 0.300000 2.056407 2.471963
v 0.300000 2.118232 2.407942
v 0.300000 2.166029 2.328100
v 0.300000 2.196586 2.251708
v 0.300000 2.228522 2.132217
v 0.300000 2.254131 1.977655
v 0.300000 2.265346 1.836705
v 0.300000 0.530663 -2.500000
v 0.300000 0.474284 -2.471963
v 0.300000 0.412459 -2.407942
v 0.300000 0.364662 -2.328100
v 0.300000 0.334105 -2.251708
v 0.300000 0.302169 -2.132217
v 0.300000 0.276560 -1.977655
v 0.300000 0.265346 -1.836705
v 0.300000 2.265346 -1.836706
v 0.300000 2.254131 -1.977655
v 0.300000 2.228522 -2.132217
v 0.300000 2.196586 -2.251708
v 0.300000 2.166029 -2.328100
v 0.300000 2.118232 -2.407942
v 0.300000 2.056407 -2.471963
v 0.300000 2.000028 -2.500000
v 0.823985 0.265346 -1.836705
v 0.823985 0.276560 -1.977655
v 0.823985 0.302169 -2.132217
v 0.823985 0.334105 -2.251708
v 0.823985 0.364662 -2.328100
v 0.823985 0.412459 -2.407942
v 0.823985 0.474284 -2.471963
v 0.823985 0.530663 -2.500000
v 0.823985 2.265346 1.836705
v 0.823985 2.254131 1.977655
v 0.823985 2.228522 2.132217
v 0.823985 2.196586 2.251708
v 0.823985 2.166029 2.328100
v 0.823985 2.118232 2.407942
v 0.823985 2.056407 2.471963
v 0.823985 2.000028 2.500000
v 0.823985 0.530663 2.500000
v 0.823985 0.474284 2.471963
v 0.823985 0.412459 2.407942
v 0.823985 0.364662 2.328100
v 0.823985 0.334105 2.251708
v 0.823985 0.302169 2.132217
v 0.823985 0.276560 1.977655
v 0.823985 0.265346 1.836705
v 0.823985 2.000028 -2.500000
v 0.823985 2.056407 -2.471963
v 0.823985 2.118232 -2.407942
v 0.823985 2.166029 -2.328100
v 0.823985 2.196586 -2.251708
v 0.823985 2.228522 -2.132217
v 0.823985 2.254131 -1.977655
v 0.823985 2.265346 -1.836705
v 0.823985 2.001972 1.383830
v -0.300000 1.984814 1.383830
v 0.823985 0.533960 1.383830
v -0.300000 0.527100 1.383830
v 0.823985 0.554890 -1.341813
v -0.300000 0.550436 -1.341813
v -0.300000 1.987832 -1.341813
v 0.823985 1.965255 -1.341813
vt 0.037932 0.217062
vt 0.031038 0.022301
vt 0.037932 0.022301
vt 0.210944 0.484680
vt 0.217837 0.679440
vt 0.210944 0.679440
vt 0.463227 0.022301
vt 0.470121 0.217062
vt 0.463227 0.217062
vt 0.034525 0.902455
vt 0.027631 0.679440
vt 0.034525 0.679440
vt 0.037932 0.440077
vt 0.031038 0.217062
vt 0.214351 0.217062
vt 0.221245 0.440077
vt 0.214351 0.440077
vt 0.470121 0.440077
vt 0.463227 0.440077
vt 0.585469 0.925528
vt 0.678066 0.917477
vt 0.686116 0.925528
vt 0.286808 0.440077
vt 0.279914 0.217062
vt 0.286808 0.217062
vt 0.478858 0.440077
vt 0.475450 0.217062
vt 0.478858 0.217062
vt 0.535684 0.245316
vt 0.528790 0.022301
vt 0.535684 0.022301
vt 0.673393 0.245316
vt 0.572746 0.440077
vt 0.572746 0.245316
vt 0.185990 0.217062
vt 0.064419 0.440077
vt 0.064419 0.217062
vt 0.062886 0.902455
vt 0.184457 0.679440
vt 0.184457 0.902455
vt 0.027631 0.484680
vt 0.034525 0.484680
vt 0.025709 0.440077
vt 0.022301 0.217062
vt 0.025709 0.217062
vt 0.523461 0.781882
vt 0.555747 0.803956
vt 0.523461 0.803956
vt 0.226574 0.217062
vt 0.229982 0.440077
vt 0.226574 0.440077
vt 0.712103 0.245316
vt 0.718997 0.440077
vt 0.712103 0.440077
vt 0.323870 0.217062
vt 0.424517 0.022301
vt 0.424517 0.217062
vt 0.575119 0.516470
vt 0.575119 0.484680
vt 0.696691 0.513867
vt 0.575119 0.676750
vt 0.575119 0.647335
vt 0.696691 0.676413
vt 0.696691 0.647335
vt 0.575119 0.546688
vt 0.696691 0.546688
vt 0.716891 0.975312
vt 0.686116 0.975312
vt 0.746476 0.647335
vt 0.746476 0.546688
vt 0.791078 0.772426
vt 0.891725 0.650854
vt 0.891725 0.772426
vt 0.673393 0.022301
vt 0.279914 0.022301
vt 0.286808 0.022301
vt 0.323870 0.440077
vt 0.424517 0.440077
vt 0.523461 0.546688
vt 0.553413 0.925528
vt 0.717107 0.925528
vt 0.713013 0.803956
vt 0.686116 0.752298
vt 0.686116 0.803956
vt 0.585469 0.803956
vt 0.585469 0.752298
vt 0.585469 0.975312
vt 0.185990 0.022301
vt 0.593520 0.812007
vt 0.523461 0.945727
vt 0.523461 0.925528
vt 0.535684 0.440077
vt 0.528790 0.245316
vt 0.891725 0.606251
vt 0.883675 0.492730
vt 0.891725 0.484680
vt 0.214351 0.022301
vt 0.221245 0.217062
vt 0.791078 0.606251
vt 0.883675 0.598201
vt 0.062886 0.679440
vt 0.184457 0.484680
vt 0.357286 0.619328
vt 0.478858 0.484680
vt 0.478858 0.619328
vt 0.357286 0.798580
vt 0.478858 0.663931
vt 0.478858 0.798580
vt 0.872984 0.201553
vt 0.772337 0.336202
vt 0.772337 0.201553
vt 0.872984 0.022301
vt 0.772337 0.156950
vt 0.772337 0.022301
vt 0.917587 0.022301
vt 0.977699 0.106848
vt 0.917587 0.106848
vt 0.955905 0.901575
vt 0.895793 0.817029
vt 0.955905 0.817029
vt 0.357286 0.843183
vt 0.417398 0.948654
vt 0.357286 0.948654
vt 0.791078 0.817029
vt 0.851190 0.922500
vt 0.791078 0.922500
vt 0.678066 0.812007
vt 0.593520 0.917477
vt 0.799129 0.492730
vt 0.791078 0.484680
vt 0.799129 0.598201
vt 0.553046 0.484680
vt 0.523461 0.647335
vt 0.727734 0.245316
vt 0.724326 0.022301
vt 0.727734 0.022301
vt 0.724326 0.245316
vt 0.727734 0.440077
vt 0.724326 0.440077
vt 0.229982 0.217062
vt 0.226574 0.022301
vt 0.229982 0.022301
vt 0.475450 0.022301
vt 0.478858 0.022301
vt 0.022301 0.022301
vt 0.712103 0.022301
vt 0.718997 0.245316
vt 0.040812 0.679440
vt 0.040812 0.902455
vt 0.456940 0.217062
vt 0.456940 0.440077
vt 0.208064 0.440077
vt 0.208064 0.217062
vt 0.293095 0.440077
vt 0.204657 0.902455
vt 0.705816 0.022301
vt 0.705816 0.245316
vt 0.044219 0.217062
vt 0.541971 0.245316
vt 0.572746 0.022301
vt 0.673393 0.440077
vt 0.204657 0.484680
vt 0.204657 0.679440
vt 0.293095 0.217062
vt 0.323870 0.022301
vt 0.208064 0.022301
vt 0.062885 0.484680
vt 0.456940 0.022301
vt 0.541971 0.440077
vt 0.064419 0.022301
vt 0.217837 0.902455
vt 0.210944 0.902455
vt 0.022301 0.679440
vt 0.027631 0.902455
vt 0.022302 0.902455
vt 0.475450 0.440077
vt 0.274585 0.217062
vt 0.279914 0.440077
vt 0.274585 0.440077
vt 0.223167 0.902455
vt 0.223167 0.679440
vt 0.718997 0.022301
vt 0.044219 0.440077
vt 0.031039 0.440077
vt 0.541971 0.022301
vt 0.523461 0.022301
vt 0.523461 0.245316
vt 0.705816 0.440077
vt 0.217837 0.484680
vt 0.223167 0.484680
vt 0.293095 0.022301
vt 0.274585 0.022301
vt 0.221245 0.022301
vt 0.040812 0.484680
vt 0.022301 0.484680
vt 0.470121 0.022301
vt 0.528790 0.440077
vt 0.523461 0.440077
vt 0.044219 0.022301
vt 0.025709 0.022301
vt 0.716891 0.484680
vt 0.696691 0.484680
vt 0.746475 0.945727
vt 0.723177 0.974062
vt 0.745225 0.952014
vt 0.730071 0.971206
vt 0.742369 0.958908
vt 0.735401 0.967645
vt 0.746476 0.678110
vt 0.723177 0.706444
vt 0.716891 0.707695
vt 0.745225 0.684396
vt 0.730071 0.703588
vt 0.742369 0.691290
vt 0.735401 0.700027
vt 0.696691 0.707695
vt 0.553046 0.975312
vt 0.524711 0.952014
vt 0.546759 0.974062
vt 0.527567 0.958908
vt 0.539865 0.971206
vt 0.531128 0.964238
vt 0.745225 0.507978
vt 0.746476 0.514265
vt 0.723177 0.485930
vt 0.742369 0.501084
vt 0.730071 0.488786
vt 0.738808 0.495754
vt 0.546759 0.753548
vt 0.553046 0.752298
vt 0.524711 0.775596
vt 0.539865 0.756404
vt 0.527567 0.768702
vt 0.534535 0.759965
vt 0.523461 0.514265
vt 0.546759 0.485930
vt 0.524711 0.507978
vt 0.539865 0.488786
vt 0.527567 0.501084
vt 0.534535 0.492347
vt 0.553046 0.707695
vt 0.524711 0.684396
vt 0.523461 0.678110
vt 0.546759 0.706444
vt 0.527567 0.691290
vt 0.539865 0.703588
vt 0.531128 0.696620
vt 0.716891 0.752298
vt 0.745225 0.775596
vt 0.746475 0.781882
vt 0.723177 0.753548
vt 0.742369 0.768702
vt 0.730071 0.756404
vt 0.738808 0.763372
vt 0.746475 0.803956
vt 0.185990 0.440077
vt 0.022302 0.440077
vt 0.575119 0.707695
vt 0.791078 0.650854
vt 0.746475 0.925528
vt 0.357286 0.484680
vt 0.357286 0.663931
vt 0.872984 0.336202
vt 0.872984 0.156950
vt 0.977699 0.022301
vt 0.895793 0.901575
vt 0.417398 0.843183
vt 0.851190 0.817029
vt 0.738808 0.964238
vt 0.738808 0.696620
vt 0.534535 0.967645
vt 0.735401 0.492347
vt 0.531128 0.763372
vt 0.531128 0.495754
vt 0.534535 0.700027
vt 0.735401 0.759965
vn 0.0000 0.9866 0.1635
vn 0.0000 -0.9866 0.1635
vn 0.0000 -0.7193 -0.6947
vn 0.0000 -0.9866 -0.1635
vn 0.0000 0.9866 -0.1635
vn 1.0000 0.0000 0.0000
vn 0.0000 0.7193 -0.6947
vn -0.0000 -0.9285 -0.3714
vn 0.0000 0.7193 0.6947
vn 0.0000 0.0000 1.0000
vn 0.0000 1.0000 0.0000
vn 0.0000 -1.0000 0.0000
vn 0.0000 0.9285 0.3714
vn 0.0000 0.9285 -0.3714
vn 0.0000 -0.7193 0.6947
vn 0.0000 0.0000 -1.0000
vn -1.0000 0.0000 0.0000
vn -0.0000 -0.9285 0.3714
vn 0.0000 -0.9968 -0.0793
vn 0.0000 -0.9661 -0.2582
vn 0.0000 -0.4453 -0.8954
vn 0.0000 -0.8580 -0.5136
vn 0.0000 0.9968 -0.0793
vn 0.0000 0.9661 -0.2582
vn 0.0000 0.4453 -0.8954
vn 0.0000 0.8580 -0.5136
vn 0.0000 -0.9968 0.0793
vn 0.0000 -0.9661 0.2582
vn 0.0000 -0.4453 0.8954
vn 0.0000 -0.8580 0.5136
vn 0.0000 0.9968 0.0793
vn 0.0000 0.9661 0.2582
vn 0.0000 0.4453 0.8954
vn 0.0000 0.8580 0.5136
s off
f 95/1/1 123/2/1 122/3/1
f 135/4/2 83/5/2 82/6/2
f 119/7/3 99/8/3 98/9/3
f 71/10/4 102/11/4 103/12/4
f 63/13/1 94/14/1 95/1/1
f 106/15/5 75/16/5 74/17/5
f 98/9/3 67/18/3 66/19/3
f 31/20/6 43/21/6 35/22/6
f 79/23/7 110/24/7 111/25/7
f 69/26/8 100/27/8 101/28/8
f 90/29/9 59/30/9 58/31/9
f 4/32/10 30/33/10 20/34/10
f 15/35/11 6/36/11 8/37/11
f 14/38/12 7/39/12 5/40/12
f 103/12/4 115/41/4 114/42/4
f 61/43/13 92/44/13 93/45/13
f 113/46/6 149/47/6 26/48/6
f 108/49/14 77/50/14 76/51/14
f 87/52/15 131/53/15 130/54/15
f 19/55/16 25/56/16 3/57/16
f 150/58/17 14/59/17 148/60/17
f 151/61/17 24/62/17 146/63/17
f 22/64/17 13/65/17 10/66/17
f 35/22/6 128/67/6 30/68/6
f 17/69/17 10/66/17 1/70/17
f 23/71/6 9/72/6 16/73/6
f 20/34/10 1/74/10 4/32/10
f 111/25/7 139/75/7 138/76/7
f 18/77/16 3/57/16 2/78/16
f 24/62/17 2/79/17 13/65/17
f 31/20/6 147/80/6 149/47/6
f 145/81/6 35/22/6 152/82/6
f 29/83/6 152/82/6 36/84/6
f 29/83/6 34/85/6 25/86/6
f 35/22/6 28/87/6 31/20/6
f 8/37/11 33/88/11 15/35/11
f 36/84/6 41/89/6 34/85/6
f 147/80/6 136/90/6 32/91/6
f 127/92/9 91/93/9 90/29/9
f 38/94/17 46/95/17 39/96/17
f 143/97/5 107/98/5 106/15/5
f 37/99/17 47/100/17 38/94/17
f 12/101/12 32/102/12 7/39/12
f 23/103/12 37/104/12 21/105/12
f 9/106/11 39/107/11 16/108/11
f 16/109/10 40/110/10 23/111/10
f 21/112/16 38/113/16 9/114/16
f 45/115/16 42/116/16 47/117/16
f 46/118/10 44/119/10 48/120/10
f 47/121/11 41/122/11 46/123/11
f 48/124/12 43/125/12 45/126/12
f 35/22/6 44/127/6 36/84/6
f 34/85/6 42/128/6 31/20/6
f 39/96/17 48/129/17 40/130/17
f 40/130/17 45/131/17 37/99/17
f 150/58/17 72/132/17 14/59/17
f 151/61/17 18/133/17 24/62/17
f 84/134/18 53/135/18 52/136/18
f 17/69/17 146/63/17 22/64/17
f 85/137/18 133/138/18 132/139/18
f 109/140/14 141/141/14 140/142/14
f 101/28/8 117/143/8 116/144/8
f 125/145/13 93/45/13 92/44/13
f 55/146/15 86/147/15 87/52/15
f 104/148/12 14/38/12 72/149/12
f 2/78/16 97/150/16 65/151/16
f 73/152/11 15/35/11 105/153/11
f 80/154/16 19/55/16 18/77/16
f 7/39/12 49/155/12 5/40/12
f 4/32/10 56/156/10 88/157/10
f 6/36/11 96/158/11 8/37/11
f 89/159/10 17/160/10 20/34/10
f 88/157/10 28/161/10 4/32/10
f 7/39/12 136/162/12 81/163/12
f 112/164/16 29/165/16 19/55/16
f 15/35/11 144/166/11 105/153/11
f 104/148/12 26/167/12 12/101/12
f 3/57/16 120/168/16 97/150/16
f 20/34/10 128/169/10 89/159/10
f 96/158/11 27/170/11 8/37/11
f 82/6/2 51/171/2 50/172/2
f 72/149/19 103/12/19 104/148/19
f 101/173/20 70/174/20 69/175/20
f 97/150/21 66/19/21 65/151/21
f 68/176/22 99/8/22 100/27/22
f 105/153/23 74/17/23 73/152/23
f 76/51/24 107/98/24 108/49/24
f 80/154/25 111/25/25 112/164/25
f 109/177/26 78/178/26 77/179/26
f 81/163/27 50/172/27 49/155/27
f 52/180/28 83/5/28 84/181/28
f 56/156/29 87/52/29 88/157/29
f 85/137/30 54/182/30 53/135/30
f 64/183/31 95/1/31 96/158/31
f 93/45/32 62/184/32 61/43/32
f 89/159/33 58/31/33 57/185/33
f 60/186/34 91/93/34 92/187/34
f 88/157/29 130/54/29 129/188/29
f 132/139/30 86/147/30 85/137/30
f 136/162/27 82/6/27 81/163/27
f 84/181/28 134/189/28 133/190/28
f 112/164/25 138/76/25 137/191/25
f 140/192/26 110/24/26 109/177/26
f 144/166/23 106/15/23 105/153/23
f 108/49/24 142/193/24 141/141/24
f 104/148/19 114/42/19 113/194/19
f 116/195/20 102/11/20 101/173/20
f 120/168/21 98/9/21 97/150/21
f 100/27/22 118/196/22 117/143/22
f 128/169/33 90/29/33 89/159/33
f 92/187/34 126/197/34 125/198/34
f 96/158/31 122/3/31 121/199/31
f 124/200/32 94/14/32 93/45/32
f 49/201/17 148/60/17 5/202/17
f 121/203/6 127/204/6 128/67/6
f 122/205/6 126/206/6 127/204/6
f 123/207/6 125/208/6 126/206/6
f 145/81/6 121/203/6 128/67/6
f 57/209/17 63/210/17 64/211/17
f 58/212/17 62/213/17 63/210/17
f 59/214/17 61/215/17 62/213/17
f 146/63/17 64/211/17 6/216/17
f 129/217/6 135/218/6 136/90/6
f 130/219/6 134/220/6 135/218/6
f 131/221/6 133/222/6 134/220/6
f 147/80/6 28/87/6 129/217/6
f 49/201/17 55/223/17 56/224/17
f 50/225/17 54/226/17 55/223/17
f 51/227/17 53/228/17 54/226/17
f 56/224/17 10/66/17 148/60/17
f 113/46/6 119/229/6 120/230/6
f 114/231/6 118/232/6 119/229/6
f 115/233/6 117/234/6 118/232/6
f 149/47/6 25/86/6 34/85/6
f 65/235/17 71/236/17 72/132/17
f 66/237/17 70/238/17 71/236/17
f 67/239/17 69/240/17 70/238/17
f 150/58/17 2/79/17 65/235/17
f 73/241/17 79/242/17 80/243/17
f 74/244/17 78/245/17 79/242/17
f 75/246/17 77/247/17 78/245/17
f 151/61/17 73/241/17 80/243/17
f 137/248/6 143/249/6 144/250/6
f 138/251/6 142/252/6 143/249/6
f 139/253/6 141/254/6 142/252/6
f 152/82/6 144/250/6 33/255/6
f 95/1/1 94/14/1 123/2/1
f 135/4/2 134/189/2 83/5/2
f 119/7/3 118/196/3 99/8/3
f 71/10/4 70/174/4 102/11/4
f 63/13/1 62/184/1 94/14/1
f 106/15/5 107/98/5 75/16/5
f 98/9/3 99/8/3 67/18/3
f 31/20/6 42/128/6 43/21/6
f 79/23/7 78/178/7 110/24/7
f 69/26/8 68/176/8 100/27/8
f 90/29/9 91/93/9 59/30/9
f 4/32/10 28/161/10 30/33/10
f 15/35/11 11/256/11 6/36/11
f 14/38/12 12/101/12 7/39/12
f 103/12/4 102/11/4 115/41/4
f 61/43/13 60/257/13 92/44/13
f 113/46/6 120/230/6 149/47/6
f 108/49/14 109/140/14 77/50/14
f 87/52/15 86/147/15 131/53/15
f 19/55/16 29/165/16 25/56/16
f 14/59/17 5/202/17 148/60/17
f 148/60/17 10/66/17 150/58/17
f 10/66/17 13/65/17 150/58/17
f 24/62/17 22/64/17 146/63/17
f 146/63/17 6/216/17 151/61/17
f 6/216/17 11/258/17 151/61/17
f 22/64/17 24/62/17 13/65/17
f 35/22/6 145/81/6 128/67/6
f 17/69/17 22/64/17 10/66/17
f 23/71/6 21/259/6 9/72/6
f 20/34/10 17/160/10 1/74/10
f 111/25/7 110/24/7 139/75/7
f 18/77/16 19/55/16 3/57/16
f 24/62/17 18/133/17 2/79/17
f 32/91/6 26/48/6 147/80/6
f 26/48/6 149/47/6 147/80/6
f 149/47/6 34/85/6 31/20/6
f 35/22/6 36/84/6 152/82/6
f 152/82/6 33/255/6 145/81/6
f 33/255/6 27/260/6 145/81/6
f 29/83/6 137/248/6 152/82/6
f 29/83/6 36/84/6 34/85/6
f 35/22/6 30/68/6 28/87/6
f 8/37/11 27/170/11 33/88/11
f 36/84/6 44/127/6 41/89/6
f 147/80/6 129/217/6 136/90/6
f 127/92/9 126/197/9 91/93/9
f 38/94/17 47/100/17 46/95/17
f 143/97/5 142/193/5 107/98/5
f 37/99/17 45/131/17 47/100/17
f 12/101/12 26/167/12 32/102/12
f 23/103/12 40/261/12 37/104/12
f 9/106/11 38/262/11 39/107/11
f 16/109/10 39/263/10 40/110/10
f 21/112/16 37/264/16 38/113/16
f 45/115/16 43/265/16 42/116/16
f 46/118/10 41/266/10 44/119/10
f 47/121/11 42/267/11 41/122/11
f 48/124/12 44/268/12 43/125/12
f 35/22/6 43/21/6 44/127/6
f 34/85/6 41/89/6 42/128/6
f 39/96/17 46/95/17 48/129/17
f 40/130/17 48/129/17 45/131/17
f 150/58/17 65/235/17 72/132/17
f 151/61/17 80/243/17 18/133/17
f 84/134/18 85/137/18 53/135/18
f 17/69/17 57/209/17 146/63/17
f 85/137/18 84/134/18 133/138/18
f 109/140/14 108/49/14 141/141/14
f 101/28/8 100/27/8 117/143/8
f 125/145/13 124/200/13 93/45/13
f 55/146/15 54/182/15 86/147/15
f 104/148/12 12/101/12 14/38/12
f 2/78/16 3/57/16 97/150/16
f 73/152/11 11/256/11 15/35/11
f 80/154/16 112/164/16 19/55/16
f 7/39/12 81/163/12 49/155/12
f 4/32/10 1/74/10 56/156/10
f 6/36/11 64/183/11 96/158/11
f 89/159/10 57/185/10 17/160/10
f 88/157/10 129/188/10 28/161/10
f 7/39/12 32/102/12 136/162/12
f 112/164/16 137/191/16 29/165/16
f 15/35/11 33/88/11 144/166/11
f 104/148/12 113/194/12 26/167/12
f 3/57/16 25/56/16 120/168/16
f 20/34/10 30/33/10 128/169/10
f 96/158/11 121/199/11 27/170/11
f 82/6/2 83/5/2 51/171/2
f 72/149/19 71/10/19 103/12/19
f 101/173/20 102/11/20 70/174/20
f 97/150/21 98/9/21 66/19/21
f 68/176/22 67/18/22 99/8/22
f 105/153/23 106/15/23 74/17/23
f 76/51/24 75/16/24 107/98/24
f 80/154/25 79/23/25 111/25/25
f 109/177/26 110/24/26 78/178/26
f 81/163/27 82/6/27 50/172/27
f 52/180/28 51/171/28 83/5/28
f 56/156/29 55/146/29 87/52/29
f 85/137/30 86/147/30 54/182/30
f 64/183/31 63/13/31 95/1/31
f 93/45/32 94/14/32 62/184/32
f 89/159/33 90/29/33 58/31/33
f 60/186/34 59/30/34 91/93/34
f 88/157/29 87/52/29 130/54/29
f 132/139/30 131/53/30 86/147/30
f 136/162/27 135/4/27 82/6/27
f 84/181/28 83/5/28 134/189/28
f 112/164/25 111/25/25 138/76/25
f 140/192/26 139/75/26 110/24/26
f 144/166/23 143/97/23 106/15/23
f 108/49/24 107/98/24 142/193/24
f 104/148/19 103/12/19 114/42/19
f 116/195/20 115/41/20 102/11/20
f 120/168/21 119/7/21 98/9/21
f 100/27/22 99/8/22 118/196/22
f 128/169/33 127/92/33 90/29/33
f 92/187/34 91/93/34 126/197/34
f 96/158/31 95/1/31 122/3/31
f 124/200/32 123/2/32 94/14/32
f 49/201/17 56/224/17 148/60/17
f 121/203/6 122/205/6 127/204/6
f 122/205/6 123/207/6 126/206/6
f 123/207/6 124/269/6 125/208/6
f 145/81/6 27/260/6 121/203/6
f 57/209/17 58/212/17 63/210/17
f 58/212/17 59/214/17 62/213/17
f 59/214/17 60/270/17 61/215/17
f 146/63/17 57/209/17 64/211/17
f 129/217/6 130/219/6 135/218/6
f 130/219/6 131/221/6 134/220/6
f 131/221/6 132/271/6 133/222/6
f 147/80/6 31/20/6 28/87/6
f 49/201/17 50/225/17 55/223/17
f 50/225/17 51/227/17 54/226/17
f 51/227/17 52/272/17 53/228/17
f 56/224/17 1/70/17 10/66/17
f 113/46/6 114/231/6 119/229/6
f 114/231/6 115/233/6 118/232/6
f 115/233/6 116/273/6 117/234/6
f 149/47/6 120/230/6 25/86/6
f 65/235/17 66/237/17 71/236/17
f 66/237/17 67/239/17 70/238/17
f 67/239/17 68/274/17 69/240/17
f 150/58/17 13/65/17 2/79/17
f 73/241/17 74/244/17 79/242/17
f 74/244/17 75/246/17 78/245/17
f 75/246/17 76/275/17 77/247/17
f 151/61/17 11/258/17 73/241/17
f 137/248/6 138/251/6 143/249/6
f 138/251/6 139/253/6 142/252/6
f 139/253/6 140/276/6 141/254/6
f 152/82/6 137/248/6 144/250/6
