# Blender v2.79 (sub 0) OBJ File: 'wall.blend'
# www.blender.org
o Cube_Cube.001
v -0.100000 6.025511 5.000000
v 0.100000 6.025511 5.000000
v -0.100000 6.025511 -5.000000
v 0.100000 6.025511 -5.000000
v -0.100000 0.025511 5.000000
v 0.100000 0.025511 5.000000
v -0.100000 0.025511 -5.000000
v 0.100000 0.025511 -5.000000
vt 0.388889 0.277778
vt 0.611111 0.055556
vt 0.611111 0.277778
vt 0.055556 0.611111
vt 0.277778 0.388889
vt 0.277778 0.611111
vt 0.055556 0.277778
vt 0.277778 0.055556
vt 0.277778 0.277778
vt 0.388889 0.388889
vt 0.611111 0.611111
vt 0.388889 0.611111
vt 0.722222 0.277778
vt 0.944444 0.055556
vt 0.944444 0.277778
vt 0.277778 0.944444
vt 0.055556 0.722222
vt 0.277778 0.722222
vt 0.388889 0.055556
vt 0.055556 0.388889
vt 0.055556 0.055556
vt 0.611111 0.388889
vt 0.722222 0.055556
vt 0.055556 0.944444
vn 0.0000 1.0000 0.0000
vn 0.0000 0.0000 -1.0000
vn 0.0000 -1.0000 0.0000
vn 0.0000 0.0000 1.0000
vn -1.0000 0.0000 0.0000
vn 1.0000 -0.0000 0.0000
s off
f 2/1/1 3/2/1 1/3/1
f 4/4/2 7/5/2 3/6/2
f 8/7/3 5/8/3 7/9/3
f 6/10/4 1/11/4 5/12/4
f 7/13/5 1/14/5 3/15/5
f 4/16/6 6/17/6 8/18/6
f 2/1/1 4/19/1 3/2/1
f 4/4/2 8/20/2 7/5/2
f 8/7/3 6/21/3 5/8/3
f 6/10/4 2/22/4 1/11/4
f 7/13/5 5/23/5 1/14/5
f 4/16/6 2/24/6 6/17/6
